<svg width="1856" height="1080" viewBox="0 0 1856 1080" fill="none" xmlns="http://www.w3.org/2000/svg">
<path d="M1439.61 218L1450 200L1460.39 218H1439.61Z" stroke="#CF4981" stroke-width="2"/>
<path d="M692.392 201L682 219L671.608 201H692.392Z" stroke="#CF4981" stroke-width="2"/>
<path d="M1841.11 261.591L1826.41 246.894L1846.49 241.515L1841.11 261.591Z" stroke="#CF4981" stroke-width="2"/>
<rect x="192" y="846" width="23" height="23" stroke="#CF4981" stroke-width="2"/>
<rect x="134.463" y="222.237" width="23" height="23" transform="rotate(44.8705 134.463 222.237)" stroke="#CF4981" stroke-width="2"/>
<rect x="1821.37" y="749.866" width="23" height="23" transform="rotate(-30 1821.37 749.866)" stroke="#CF4981" stroke-width="2"/>
<path d="M877.044 1047.64L877.453 1055.45L877.491 1056.17L878.193 1056.36L885.747 1058.38L878.446 1061.19L877.768 1061.45L877.806 1062.17L878.215 1069.98L873.293 1063.9L872.836 1063.34L872.158 1063.6L864.857 1066.4L869.116 1059.84L869.512 1059.24L869.055 1058.67L864.133 1052.59L871.687 1054.62L872.389 1054.8L872.785 1054.2L877.044 1047.64Z" stroke="#CF4981" stroke-width="2"/>
<path d="M1448.99 590.399L1456.8 589.94L1457.52 589.897L1457.7 589.194L1459.68 581.628L1462.53 588.91L1462.79 589.587L1463.52 589.544L1471.33 589.085L1465.28 594.045L1464.72 594.506L1464.98 595.183L1467.83 602.466L1461.25 598.249L1460.64 597.857L1460.07 598.318L1454.03 603.278L1456 595.711L1456.19 595.008L1455.57 594.617L1448.99 590.399Z" stroke="#CF4981" stroke-width="2"/>
<path d="M1808.27 20.8365L1815.15 24.5693L1815.79 24.9161L1816.31 24.416L1821.99 19.0338L1820.56 26.723L1820.43 27.4374L1821.07 27.7842L1827.94 31.5169L1820.18 32.5364L1819.46 32.6311L1819.33 33.3454L1817.9 41.0347L1814.54 33.9755L1814.23 33.3197L1813.51 33.4144L1805.75 34.4339L1811.43 29.0516L1811.95 28.5515L1811.64 27.8957L1808.27 20.8365Z" stroke="#CF4981" stroke-width="2"/>
<circle cx="109.5" cy="1068.5" r="11.5" stroke="#CF4981" stroke-width="2"/>
<circle cx="-0.5" cy="505.5" r="11.5" stroke="#CF4981" stroke-width="2"/>
<circle cx="1548.5" cy="1043.5" r="11.5" stroke="#CF4981" stroke-width="2"/>
<circle cx="476.5" cy="2.5" r="11.5" stroke="#CF4981" stroke-width="2"/>
</svg>
