<svg width="42" height="53" viewBox="0 0 42 53" fill="none" xmlns="http://www.w3.org/2000/svg">
<path d="M35.0777 11.545L41.4913 0H29.465L25.892 6.43099C24.2428 6.00883 22.5156 5.78473 20.7354 5.78473C9.2835 5.78552 0 15.069 0 26.5209C0 32.4137 2.45877 37.7321 6.40495 41.5087L0.020516 53H12.0469L15.5945 46.614C17.2382 47.033 18.9608 47.2563 20.7354 47.2563C32.1873 47.2563 41.4708 37.9728 41.4708 26.5209C41.4708 20.6336 39.0175 15.32 35.0777 11.545ZM20.6762 38.9828C20.3985 38.9828 20.1231 38.9734 19.8493 38.9552L24.4882 30.6052H12.4619L10.6194 33.9217C9.07124 31.8377 8.15433 29.2559 8.15433 26.4609C8.15433 19.5455 13.7607 13.9391 20.6762 13.9391C21.0195 13.9391 21.3603 13.9533 21.6973 13.9809L17.0236 22.3932H29.0499L30.8474 19.158C32.3262 21.2136 33.1973 23.7355 33.1973 26.4609C33.1973 33.3756 27.5909 38.982 20.6762 38.982V38.9828Z" fill="white"/>
</svg>
